<svg width="46" height="46" viewBox="0 0 46 46" fill="none" xmlns="http://www.w3.org/2000/svg">
<path d="M23.9511 0.624905C23.9135 0.530922 23.8571 0.436939 23.7819 0.342956C23.7067 0.267769 23.6315 0.192581 23.5375 0.136191C23.3496 0.0234117 23.124 -0.014181 22.9172 0.00461561C22.8045 0.0234122 22.7105 0.0422089 22.5977 0.0985988C22.5037 0.154989 22.4097 0.211379 22.3345 0.286565C22.2594 0.361752 22.203 0.455736 22.1466 0.54972C22.0902 0.643703 22.0526 0.737684 22.0338 0.850464C22.0338 0.850464 20.4361 0.0798016 20.8496 0.98204C21.1504 1.56474 21.5451 2.10984 21.9962 2.57975C21.9962 2.57975 23.8759 2.54216 24.421 2.3166C24.7217 1.7527 24.9661 1.15121 25.1164 0.512124C25.3232 -0.427707 24.0638 0.549718 23.9511 0.624905Z" fill="#94BF3E"/>
<path d="M30.0788 25.9628C30.0788 26.2071 30.0788 26.4515 30.06 26.6958C30.0225 27.1846 29.9285 27.6733 29.7969 28.1432C29.7217 28.3875 29.6465 28.6131 29.5713 28.8387C29.4773 29.0642 29.3834 29.2898 29.2706 29.5153C29.1578 29.7409 29.045 29.9477 28.8947 30.1544C28.7443 30.3612 28.6127 30.5492 28.4623 30.7559C27.9924 31.3386 27.4473 31.8273 26.8458 32.2596C26.6391 32.3912 26.4323 32.5228 26.2255 32.6356C26 32.7484 25.7932 32.8611 25.5676 32.9551C25.3421 33.0491 25.1165 33.1431 24.8722 33.1995C24.6466 33.2747 24.4023 33.3311 24.1579 33.3874C23.9135 33.425 23.6692 33.4814 23.4248 33.5002C23.1805 33.519 22.9361 33.5378 22.6918 33.5378C22.4474 33.5378 22.2031 33.519 21.9587 33.5002C21.7143 33.4814 21.47 33.4438 21.2256 33.3874C20.9813 33.3311 20.7369 33.2747 20.5114 33.1995C20.2858 33.1243 20.0414 33.0491 19.8159 32.9551C19.5903 32.8611 19.3648 32.7484 19.158 32.6356C18.9512 32.5228 18.7257 32.3912 18.5377 32.2596C18.3309 32.1281 18.143 31.9777 17.955 31.8085C17.767 31.6582 17.5791 31.489 17.4099 31.3198C17.2407 31.1506 17.0904 30.9627 16.94 30.7747C16.7896 30.5867 16.6392 30.38 16.5077 30.1732C16.3761 29.9665 16.2445 29.7597 16.1317 29.5341C16.019 29.3086 15.925 29.083 15.831 28.8575C15.737 28.6319 15.6618 28.3875 15.5866 28.162C15.5115 27.9176 15.4739 27.6921 15.4175 27.4477C15.3799 27.2034 15.3423 26.959 15.3235 26.7146C15.3047 26.4703 15.3047 26.2259 15.3047 25.9816C15.3047 25.85 15.3235 25.7184 15.3799 25.5868C15.4363 25.4553 15.5115 25.3425 15.6054 25.2485C16.0002 24.8538 16.658 24.8538 17.0528 25.2485C17.2407 25.4365 17.3535 25.6996 17.3535 25.9628C17.3535 26.1319 17.3535 26.3199 17.3723 26.4891C17.3911 26.6583 17.4099 26.8462 17.4475 27.0154C17.4851 27.1846 17.5227 27.3537 17.5791 27.5229C17.6355 27.6921 17.6919 27.8612 17.767 28.0116C17.8234 28.1808 17.8986 28.3312 17.9926 28.4815C18.0678 28.6319 18.1618 28.7823 18.2558 28.9326C18.3497 29.083 18.4625 29.2146 18.5753 29.3462C18.6881 29.4777 18.8009 29.6093 18.9324 29.7409C19.064 29.8725 19.1768 29.9853 19.3272 30.098C19.4775 30.2108 19.6091 30.3048 19.7407 30.4176C19.8911 30.5116 20.0414 30.6055 20.1918 30.6807C20.3422 30.7559 20.5114 30.8311 20.6617 30.9063C20.8121 30.9815 21.0001 31.0379 21.1504 31.0755C21.3196 31.1318 21.4888 31.1694 21.6579 31.207C22.3534 31.3386 23.0677 31.3386 23.7444 31.207C23.9135 31.1694 24.0827 31.1318 24.2519 31.0755C24.4211 31.0191 24.5902 30.9627 24.7406 30.9063C24.9098 30.8311 25.0601 30.7559 25.2105 30.6807C25.3609 30.6055 25.5113 30.5116 25.6616 30.4176C25.812 30.3236 25.9436 30.2108 26.0752 30.098C26.2067 29.9853 26.3383 29.8725 26.4699 29.7409C26.6015 29.6093 26.7142 29.4777 26.827 29.3462C26.9398 29.2146 27.0526 29.0642 27.1466 28.9326C27.2405 28.7823 27.3345 28.6319 27.4097 28.4815C27.4849 28.3312 27.5601 28.162 27.6353 28.0116C27.7105 27.8424 27.7669 27.6921 27.8044 27.5229C27.8608 27.3537 27.8984 27.1846 27.936 27.0154C28.0112 26.677 28.03 26.3199 28.0488 25.9628C28.0488 25.6996 28.1616 25.4365 28.3496 25.2485C28.6503 24.9478 29.0826 24.8726 29.4586 25.0229C29.5901 25.0793 29.7029 25.1545 29.7969 25.2485C29.9661 25.4553 30.06 25.7184 30.0788 25.9628Z" fill="white"/>
<path d="M28.3509 13.5005L27.3735 5.06079C27.3359 4.87283 27.2231 4.72245 27.0728 4.62847L23.6706 2.99316L22.5428 3.12474C22.5428 3.12474 19.7985 5.39913 19.8173 5.39913L19.7421 5.47432C19.5729 5.62469 19.5165 5.86905 19.5541 6.07581L20.5127 14.4027L28.3509 13.5005Z" fill="#94BF3E"/>
<path d="M26.7905 2.65507C26.7153 2.05358 26.5838 1.47088 26.4146 0.888184L23.9898 2.24154C23.9334 2.18515 23.877 2.14756 23.8018 2.09117C23.7267 2.05358 23.6515 2.01598 23.5951 1.99719C23.5199 1.97839 23.4447 1.95959 23.3695 1.9408C23.2943 1.9408 23.2192 1.9408 23.1252 1.9408C23.05 1.9408 22.9748 1.95959 22.8996 1.97839C22.7492 2.01598 22.5989 2.10996 22.4861 2.20395C22.4297 2.26034 22.3733 2.31673 22.3169 2.37312L19.7418 1.54607C19.6478 2.16635 19.629 2.80544 19.6666 3.44453C19.7418 4.02722 19.8922 4.59112 20.1177 5.11743L22.3733 3.83926C22.4297 3.91444 22.5049 3.97083 22.5801 4.02722C22.6553 4.08361 22.7304 4.12121 22.8244 4.1588C22.9184 4.19639 22.9936 4.21519 23.0876 4.23398C23.1816 4.25278 23.2755 4.25278 23.3695 4.23398C23.4635 4.21519 23.5575 4.19639 23.6327 4.17759C23.7267 4.14 23.8019 4.10241 23.877 4.04602C23.9522 3.98963 24.0274 3.93324 24.0838 3.85805C24.1402 3.78287 24.1966 3.70768 24.253 3.63249L26.7717 4.45954C26.8281 3.85805 26.8281 3.25656 26.7905 2.65507Z" fill="#2AAA5A"/>
<path d="M24.7427 15.6245C29.7051 15.3238 34.3854 15.0606 36.5094 14.9291H36.547H36.5846H36.6974L37.5808 11.3953C37.656 11.0757 37.5433 10.7562 37.2801 10.5494C37.2049 10.4931 37.0921 10.4367 36.9982 10.4179L26.1149 7.67356C26.0209 7.65476 25.9081 7.63596 25.7954 7.65476C25.4758 7.71115 25.2127 7.93671 25.1375 8.25625L23.2578 15.6997L24.7427 15.6245Z" fill="#E2127F"/>
<path d="M31.5467 15.23L33.1256 9.53458L29.9866 8.74512L28.1445 15.4367L31.5467 15.23Z" fill="#F19123"/>
<path d="M9.46004 16.5456C9.53523 16.5268 9.61041 16.5268 9.6856 16.508C12.2607 16.3576 18.5952 15.9817 24.7229 15.6245L25.1176 15.6057L23.7267 9.30886C23.7079 9.21488 23.6703 9.12089 23.6139 9.02691C23.5575 8.95172 23.4823 8.87654 23.3883 8.82015C23.2944 8.76376 23.2004 8.72617 23.1064 8.70737C23.0124 8.68857 22.8996 8.68857 22.8056 8.70737L9.17809 11.7148C9.08411 11.7336 8.99012 11.7712 8.89614 11.8276C8.82095 11.884 8.74577 11.9592 8.68938 12.0532C8.63299 12.1472 8.59539 12.2411 8.5766 12.3351C8.5578 12.4291 8.5578 12.5419 8.5766 12.6359L9.46004 16.5456ZM35.8129 8.48181C35.5874 8.80135 34.5911 8.83895 33.3882 8.72617C34.1212 8.12467 35.0798 7.56078 35.5498 7.9743C35.8129 8.14347 35.8693 8.38783 35.8129 8.48181ZM28.2191 7.10965C28.0875 6.99688 28.0875 6.79011 28.1815 6.65854C28.2567 6.58335 28.3507 6.52696 28.4446 6.48937C29.0461 6.3202 29.704 7.22244 30.1175 8.06828C29.4597 7.84272 28.8018 7.52318 28.2191 7.10965ZM36.452 7.80513C36.358 7.63596 36.2264 7.48559 36.0949 7.35401C34.8731 6.3014 32.9746 7.93671 32.3355 8.55699C32.2791 8.46301 32.204 8.36903 32.11 8.31264C32.016 8.23745 31.922 8.19986 31.8092 8.16227C31.6965 8.12467 31.5837 8.12467 31.4709 8.14347C31.3581 8.16227 31.2453 8.19986 31.1514 8.25625C30.7942 7.37281 29.7604 5.26758 28.2567 5.69991C28.0687 5.7563 27.8995 5.85028 27.7304 5.96306C27.2229 6.33899 27.1665 6.73372 27.2041 6.99687C27.4108 8.10588 29.8544 8.87654 30.7002 9.12089C30.719 9.21488 30.7378 9.29007 30.7754 9.38405C30.8506 9.55322 30.9822 9.68479 31.1514 9.77878C31.3205 9.87276 31.4897 9.91035 31.6777 9.89156C31.7716 9.87276 31.8656 9.85396 31.9408 9.81637C32.11 9.74118 32.2416 9.60961 32.3355 9.45923H32.3731C33.1814 9.57201 35.8505 9.91035 36.5084 8.95173C36.6588 8.72617 36.7715 8.33144 36.452 7.80513Z" fill="#F19123"/>
<path d="M19.5352 7.97436L19.5727 7.95557L19.5352 7.97436Z" fill="white"/>
<path d="M19.9087 15.9253L18.5177 9.62842L13.5742 10.7374L14.796 16.226L19.9087 15.9253Z" fill="#DF2228"/>
<path d="M17.4845 9.19606C17.804 8.16225 18.3679 6.99685 19.0822 7.09084C19.195 7.10963 19.3078 7.14723 19.4018 7.18482C19.5521 7.26 19.6461 7.35399 19.6461 7.39158C19.6649 7.76751 18.7251 8.51938 17.4845 9.19606ZM11.526 9.42162C11.4696 9.36523 11.4508 9.29004 11.4508 9.19606C11.4508 9.12087 11.4696 9.04568 11.526 8.9705C11.6012 8.87652 11.6763 8.80133 11.7703 8.72614C12.3906 8.33142 13.4244 9.12087 14.1763 9.92913C12.7665 9.87274 11.7515 9.70357 11.526 9.42162ZM19.8905 6.28258C19.6837 6.1698 19.4769 6.11341 19.2514 6.07582C17.4845 5.86906 16.695 8.31262 16.3943 9.47801C16.2063 9.38403 15.9996 9.36523 15.8116 9.40282C15.7176 9.42162 15.6236 9.45921 15.5297 9.5156C15.4545 9.57199 15.3793 9.64718 15.3041 9.72236C14.5522 8.82012 12.729 6.92167 11.2252 7.89909C11.0373 8.03067 10.8681 8.18104 10.7365 8.36901C10.2854 8.9705 10.3606 9.42162 10.511 9.70357C11.1124 10.9066 14.2891 10.9253 15.2477 10.8878H15.4733C15.5297 10.9253 15.5672 10.9629 15.6236 10.9817C15.68 11.0005 15.7364 11.0193 15.7928 11.0381C15.8492 11.0569 15.9244 11.0569 15.9808 11.0569C16.0372 11.0569 16.1124 11.0569 16.1687 11.0381C16.2251 11.0193 16.2815 11.0005 16.3379 10.9817C16.3943 10.9629 16.4507 10.9253 16.4883 10.8878C16.5447 10.8502 16.5823 10.8126 16.6199 10.775C16.6575 10.7374 16.695 10.681 16.7326 10.6246L16.9582 10.5306C17.8228 10.1359 20.6611 8.70735 20.6799 7.35399C20.6799 7.03445 20.5484 6.58333 19.8717 6.24499" fill="#DF2228"/>
<path d="M37.8622 44.9097C36.4337 38.4624 35.4939 26.6205 37.5239 16.6395C37.5051 16.3952 37.3923 16.1508 37.2232 15.9629C37.1292 15.8689 37.0352 15.7937 36.9224 15.7561C36.8096 15.6997 36.6781 15.6809 36.5653 15.6621C31.8285 15.9441 14.404 16.9779 9.76127 17.241C9.6297 17.241 9.49812 17.2786 9.38534 17.335C9.27256 17.3914 9.15978 17.4666 9.0846 17.5606C8.99061 17.6546 8.93422 17.7673 8.87783 17.8801C8.82144 17.9929 8.80265 18.1245 8.80265 18.256C8.80265 18.2748 8.80265 18.2936 8.80265 18.3124C9.85526 24.3837 10.2124 35.079 8.05078 45.0225C8.05078 45.1352 8.06958 45.248 8.12597 45.3608C8.16356 45.4736 8.23875 45.5676 8.31393 45.6615C8.46431 45.8307 8.67107 45.9623 8.89663 45.9999H37.0352C37.148 45.9811 37.2607 45.9435 37.3735 45.8871C37.4863 45.8307 37.5803 45.7555 37.6555 45.6615C37.8058 45.4736 37.8998 45.248 37.8998 45.0037C37.8622 44.9661 37.8622 44.9473 37.8622 44.9097Z" fill="#1E93D1"/>
<path d="M30.0593 26.0944C30.0593 26.3387 30.0405 26.5643 30.0029 26.8087C29.9841 27.0342 29.9277 27.2786 29.8901 27.5041C29.8525 27.7297 29.7774 27.9741 29.7022 28.1808C29.627 28.3876 29.5518 28.6319 29.4578 28.8387C29.3638 29.0455 29.2511 29.271 29.1383 29.4778C29.0255 29.6845 28.8939 29.8913 28.7623 30.0793C28.6308 30.2672 28.4804 30.4552 28.33 30.6432C28.1796 30.8311 28.0105 31.0003 27.8413 31.1695C27.6721 31.3387 27.4842 31.489 27.315 31.6394C27.127 31.7898 26.9391 31.9214 26.7323 32.0529C26.5255 32.1845 26.3376 32.2973 26.112 32.4101C25.9053 32.5228 25.6797 32.6168 25.4729 32.7108C25.2474 32.8048 25.0218 32.88 24.7963 32.9552C24.5707 33.0304 24.3451 33.0867 24.1008 33.1243C23.8752 33.1619 23.6309 33.1995 23.3865 33.2183C23.1421 33.2371 22.9166 33.2559 22.6722 33.2559C22.4279 33.2559 22.2023 33.2371 21.958 33.2183C21.7136 33.1995 21.488 33.1619 21.2437 33.1243C20.9993 33.0867 20.7738 33.0304 20.5482 32.9552C20.3227 32.88 20.0971 32.8048 19.8715 32.7108C19.646 32.6168 19.4392 32.5228 19.2325 32.4101C19.0257 32.2973 18.8189 32.1845 18.6122 32.0529C18.4054 31.9214 18.2174 31.7898 18.0295 31.6394C17.8415 31.489 17.6723 31.3387 17.5032 31.1695C17.334 31.0003 17.1648 30.8311 17.0144 30.6432C16.8641 30.4552 16.7137 30.2672 16.5821 30.0793C16.4505 29.8913 16.319 29.6845 16.2062 29.4778C16.0934 29.271 15.9806 29.0643 15.8866 28.8387C15.7927 28.6131 15.7175 28.4064 15.6423 28.1808C15.5671 27.9553 15.5107 27.7297 15.4543 27.5041C15.3979 27.2786 15.3603 27.0342 15.3415 26.8087C15.304 26.5831 15.304 26.3387 15.2852 26.0944C15.2852 25.9628 15.304 25.8312 15.3603 25.6997C15.4167 25.5681 15.4919 25.4741 15.5859 25.3613C15.6799 25.2673 15.7927 25.1922 15.9242 25.1358C16.4318 24.929 17.0332 25.1734 17.24 25.6809C17.2964 25.8124 17.3152 25.944 17.3152 26.0756C17.3152 26.2448 17.3152 26.4327 17.334 26.6019C17.3528 26.7711 17.3716 26.9402 17.4092 27.1282C17.4468 27.2974 17.4844 27.4665 17.5408 27.6357C17.5971 27.8049 17.6535 27.9741 17.7099 28.1244C17.7663 28.2936 17.8603 28.444 17.9355 28.5943C18.0107 28.7447 18.1047 28.8951 18.1986 29.0455C18.2926 29.1958 18.4054 29.3274 18.5182 29.459C18.631 29.5906 18.7437 29.7221 18.8753 29.8537C19.0069 29.9853 19.1197 30.0981 19.27 30.2109C19.4204 30.3236 19.552 30.4176 19.6836 30.5304C19.8339 30.6244 19.9843 30.7184 20.1347 30.7936C20.2851 30.8687 20.4354 30.9439 20.6046 31.0191C20.7738 31.0943 20.9241 31.1507 21.0933 31.1883C21.2625 31.2447 21.4317 31.2823 21.6008 31.3199C21.77 31.3574 21.9392 31.3762 22.1271 31.395C22.2963 31.4138 22.4843 31.4138 22.6534 31.4138C22.8226 31.4138 23.0106 31.4138 23.1797 31.395C23.3489 31.3762 23.5181 31.3574 23.706 31.3199C23.894 31.2823 24.0444 31.2447 24.2136 31.1883C24.3827 31.1319 24.5519 31.0755 24.7023 31.0191C24.8714 30.9439 25.0218 30.8687 25.1722 30.7936C25.3226 30.7184 25.4729 30.6244 25.6233 30.5304C25.7737 30.4364 25.9053 30.3236 26.0368 30.2109C26.1684 30.0981 26.3 29.9853 26.4316 29.8537C26.5631 29.7221 26.6759 29.6094 26.7887 29.459C26.9015 29.3086 26.9955 29.177 27.1082 29.0455C27.221 28.9139 27.2962 28.7447 27.3714 28.5943C27.4466 28.444 27.5218 28.2748 27.597 28.1244C27.6721 27.9553 27.7285 27.8049 27.7661 27.6357C27.8225 27.4665 27.8601 27.2974 27.8977 27.1282C27.9353 26.959 27.9541 26.7899 27.9729 26.6019C27.9917 26.4139 27.9917 26.2448 27.9917 26.0756C27.9917 25.8124 28.1045 25.5493 28.2924 25.3613C28.3864 25.2673 28.4992 25.1922 28.6308 25.1358C28.8751 25.0418 29.1571 25.0418 29.4014 25.1358C29.533 25.1922 29.627 25.2673 29.7398 25.3613C29.8337 25.4553 29.9089 25.5681 29.9653 25.6997C30.0405 25.8312 30.0593 25.9628 30.0593 26.0944ZM16.3754 23.1621C16.2438 23.1621 16.1122 23.1433 15.9806 23.0869C15.8491 23.0305 15.7551 22.9742 15.6423 22.8802C15.3603 22.5982 15.2664 22.1471 15.4167 21.7712C15.5107 21.5268 15.7175 21.32 15.9618 21.2261C16.0934 21.1697 16.225 21.1509 16.3566 21.1509C16.4881 21.1509 16.6197 21.1697 16.7513 21.2261C16.8829 21.2825 16.9769 21.3576 17.0896 21.4516C17.1836 21.5456 17.2588 21.6584 17.3152 21.79C17.522 22.3163 17.2776 22.899 16.7513 23.1245C16.6385 23.1433 16.5069 23.1621 16.3754 23.1621ZM29.0443 23.1057C28.9127 23.1057 28.7623 23.0869 28.6496 23.0305C28.518 22.9742 28.4052 22.9178 28.3112 22.8238C28.2172 22.7298 28.1421 22.617 28.0857 22.4854C27.8601 21.9779 28.1045 21.3764 28.612 21.1509C28.7435 21.0945 28.9127 21.0569 29.0631 21.0757C29.1947 21.0757 29.3262 21.1133 29.439 21.1697C29.5518 21.2261 29.6646 21.3013 29.7586 21.3952C29.8525 21.4892 29.9277 21.602 29.9653 21.7148C30.0593 21.9591 30.0593 22.2223 29.9653 22.4666C29.7962 22.8426 29.439 23.0869 29.0443 23.1057Z" fill="white"/>
</svg>
