<svg width="15" height="22" viewBox="0 0 15 22" fill="none" xmlns="http://www.w3.org/2000/svg">
<path d="M8.26599 0.298868C8.24801 0.253919 8.22105 0.208971 8.18509 0.164022C8.14913 0.128063 8.11317 0.0921041 8.06822 0.065135C7.97832 0.0111969 7.87045 -0.00678223 7.77156 0.00220747C7.71762 0.0111972 7.67267 0.0201869 7.61874 0.0471559C7.57379 0.074125 7.52884 0.101094 7.49288 0.137053C7.45692 0.173012 7.42995 0.217961 7.40298 0.262909C7.37601 0.307858 7.35803 0.352805 7.34904 0.406744C7.34904 0.406744 6.58492 0.038166 6.78269 0.469671C6.92653 0.748352 7.11531 1.00905 7.33107 1.2338C7.33107 1.2338 8.23003 1.21582 8.49074 1.10794C8.63457 0.838249 8.75144 0.550578 8.82335 0.244929C8.92224 -0.204556 8.31993 0.262909 8.26599 0.298868Z" fill="#94BF3E"/>
<path d="M11.1948 12.4171C11.1948 12.5339 11.1948 12.6508 11.1858 12.7677C11.1678 13.0014 11.1229 13.2351 11.06 13.4599C11.024 13.5768 10.988 13.6846 10.9521 13.7925C10.9071 13.9004 10.8622 14.0083 10.8082 14.1161C10.7543 14.224 10.7004 14.3229 10.6285 14.4218C10.5565 14.5207 10.4936 14.6106 10.4217 14.7095C10.1969 14.9881 9.93625 15.2219 9.64858 15.4286C9.54969 15.4916 9.45081 15.5545 9.35192 15.6084C9.24404 15.6624 9.14516 15.7163 9.03728 15.7613C8.9294 15.8062 8.82153 15.8511 8.70466 15.8781C8.59678 15.9141 8.47992 15.941 8.36305 15.968C8.24619 15.986 8.12932 16.013 8.01245 16.022C7.89559 16.0309 7.77872 16.0399 7.66186 16.0399C7.54499 16.0399 7.42812 16.0309 7.31126 16.022C7.19439 16.013 7.07753 15.995 6.96066 15.968C6.84379 15.941 6.72693 15.9141 6.61905 15.8781C6.51117 15.8422 6.39431 15.8062 6.28643 15.7613C6.17856 15.7163 6.07068 15.6624 5.97179 15.6084C5.87291 15.5545 5.76503 15.4916 5.67513 15.4286C5.57625 15.3657 5.48635 15.2938 5.39645 15.2129C5.30656 15.141 5.21666 15.0601 5.13575 14.9791C5.05485 14.8982 4.98293 14.8083 4.91101 14.7184C4.83909 14.6285 4.76717 14.5297 4.70425 14.4308C4.64132 14.3319 4.57839 14.233 4.52445 14.1251C4.47051 14.0172 4.42557 13.9094 4.38062 13.8015C4.33567 13.6936 4.29971 13.5768 4.26375 13.4689C4.22779 13.352 4.20981 13.2441 4.18284 13.1273C4.16487 13.0104 4.14689 12.8935 4.1379 12.7767C4.12891 12.6598 4.12891 12.5429 4.12891 12.4261C4.12891 12.3631 4.1379 12.3002 4.16487 12.2373C4.19183 12.1744 4.22779 12.1204 4.27274 12.0755C4.46153 11.8867 4.77616 11.8867 4.96495 12.0755C5.05484 12.1654 5.10878 12.2912 5.10878 12.4171C5.10878 12.498 5.10878 12.5879 5.11777 12.6688C5.12676 12.7497 5.13575 12.8396 5.15373 12.9205C5.17171 13.0014 5.18969 13.0823 5.21666 13.1632C5.24363 13.2441 5.2706 13.325 5.30656 13.397C5.33353 13.4779 5.36948 13.5498 5.41443 13.6217C5.45039 13.6936 5.49534 13.7655 5.54029 13.8375C5.58524 13.9094 5.63917 13.9723 5.69311 14.0352C5.74705 14.0982 5.80099 14.1611 5.86392 14.224C5.92685 14.2869 5.98078 14.3409 6.0527 14.3948C6.12462 14.4488 6.18755 14.4937 6.25047 14.5476C6.32239 14.5926 6.39431 14.6375 6.46623 14.6735C6.53814 14.7095 6.61905 14.7454 6.69097 14.7814C6.76289 14.8173 6.85278 14.8443 6.9247 14.8623C7.00561 14.8893 7.08652 14.9072 7.16742 14.9252C7.50004 14.9881 7.84165 14.9881 8.16528 14.9252C8.24619 14.9072 8.32709 14.8893 8.408 14.8623C8.48891 14.8353 8.56981 14.8083 8.64173 14.7814C8.72264 14.7454 8.79456 14.7095 8.86647 14.6735C8.93839 14.6375 9.01031 14.5926 9.08223 14.5476C9.15415 14.5027 9.21707 14.4488 9.28 14.3948C9.34293 14.3409 9.40586 14.2869 9.46878 14.224C9.53171 14.1611 9.58565 14.0982 9.63959 14.0352C9.69353 13.9723 9.74746 13.9004 9.79241 13.8375C9.83736 13.7655 9.88231 13.6936 9.91827 13.6217C9.95423 13.5498 9.99019 13.4689 10.0261 13.397C10.0621 13.3161 10.0891 13.2441 10.1071 13.1632C10.134 13.0823 10.152 13.0014 10.17 12.9205C10.2059 12.7587 10.2149 12.5879 10.2239 12.4171C10.2239 12.2912 10.2779 12.1654 10.3678 12.0755C10.5116 11.9316 10.7184 11.8957 10.8981 11.9676C10.9611 11.9946 11.015 12.0305 11.06 12.0755C11.1409 12.1744 11.1858 12.3002 11.1948 12.4171Z" fill="white"/>
<path d="M10.3688 6.45688L9.90129 2.42051C9.88331 2.33061 9.82937 2.25869 9.75745 2.21374L8.13032 1.43164L7.59093 1.49457C7.59093 1.49457 6.27844 2.58232 6.28743 2.58232L6.25147 2.61828C6.17056 2.6902 6.14359 2.80706 6.16157 2.90595L6.62005 6.88838L10.3688 6.45688Z" fill="#94BF3E"/>
<path d="M9.62281 1.26984C9.58685 0.982166 9.52392 0.703485 9.44301 0.424805L8.28334 1.07206C8.25637 1.04509 8.2294 1.02711 8.19345 1.00015C8.15749 0.982166 8.12153 0.964187 8.09456 0.955197C8.0586 0.946208 8.02264 0.937218 7.98668 0.928228C7.95072 0.928228 7.91477 0.928228 7.86982 0.928228C7.83386 0.928228 7.7979 0.937217 7.76194 0.946207C7.69002 0.964187 7.6181 1.00913 7.56417 1.05408C7.5372 1.08105 7.51023 1.10802 7.48326 1.13499L6.25167 0.739444C6.20672 1.0361 6.19773 1.34175 6.21571 1.6474C6.25167 1.92608 6.32359 2.19577 6.43147 2.44749L7.51023 1.83619C7.5372 1.87215 7.57316 1.89912 7.60912 1.92608C7.64507 1.95305 7.68103 1.97103 7.72598 1.98901C7.77093 2.00699 7.80689 2.01598 7.85184 2.02497C7.89679 2.03396 7.94174 2.03396 7.98668 2.02497C8.03163 2.01598 8.07658 2.00699 8.11254 1.998C8.15749 1.98002 8.19345 1.96204 8.2294 1.93507C8.26536 1.9081 8.30132 1.88114 8.32829 1.84518C8.35526 1.80922 8.38223 1.77326 8.4092 1.7373L9.61382 2.13285C9.64079 1.84518 9.64079 1.55751 9.62281 1.26984Z" fill="#2AAA5A"/>
<path d="M8.64378 7.47258C11.0171 7.32874 13.2555 7.20289 14.2713 7.13996H14.2893H14.3073H14.3612L14.7837 5.4499C14.8197 5.29708 14.7658 5.14425 14.6399 5.04536C14.6039 5.01839 14.55 4.99143 14.5051 4.98244L9.30003 3.66994C9.25508 3.66095 9.20114 3.65196 9.1472 3.66095C8.99438 3.68792 8.86852 3.7958 8.83256 3.94862L7.93359 7.50854L8.64378 7.47258Z" fill="#E2127F"/>
<path d="M11.8967 7.28406L12.6518 4.56018L11.1505 4.18262L10.2695 7.38295L11.8967 7.28406Z" fill="#F19123"/>
<path d="M1.33551 7.91295C1.37147 7.90396 1.40743 7.90396 1.44338 7.89497C2.67497 7.82305 5.7045 7.64326 8.63514 7.47245L8.82392 7.46346L8.15868 4.45191C8.14969 4.40697 8.13171 4.36202 8.10475 4.31707C8.07778 4.28111 8.04182 4.24515 7.99687 4.21818C7.95192 4.19121 7.90697 4.17323 7.86202 4.16425C7.81708 4.15526 7.76314 4.15526 7.71819 4.16425L1.20066 5.6026C1.15571 5.61159 1.11077 5.62957 1.06582 5.65653C1.02986 5.6835 0.993899 5.71946 0.96693 5.76441C0.939961 5.80936 0.921982 5.85431 0.912992 5.89926C0.904003 5.9442 0.904003 5.99814 0.912992 6.04309L1.33551 7.91295ZM13.9391 4.05637C13.8312 4.20919 13.3547 4.22717 12.7794 4.17324C13.13 3.88557 13.5885 3.61587 13.8132 3.81365C13.9391 3.89455 13.966 4.01142 13.9391 4.05637ZM10.3072 3.40012C10.2443 3.34618 10.2443 3.2473 10.2892 3.18437C10.3252 3.14841 10.3701 3.12144 10.4151 3.10346C10.7028 3.02255 11.0174 3.45406 11.2152 3.8586C10.9005 3.75072 10.5859 3.59789 10.3072 3.40012ZM14.2447 3.73274C14.1998 3.65183 14.1368 3.57992 14.0739 3.51699C13.4896 3.01356 12.5816 3.79567 12.276 4.09233C12.249 4.04738 12.213 4.00243 12.1681 3.97546C12.1231 3.9395 12.0782 3.92152 12.0243 3.90354C11.9703 3.88557 11.9164 3.88556 11.8624 3.89455C11.8085 3.90354 11.7546 3.92152 11.7096 3.94849C11.5388 3.52598 11.0444 2.51913 10.3252 2.72589C10.2353 2.75286 10.1544 2.79781 10.0735 2.85175C9.83077 3.03154 9.8038 3.22033 9.82178 3.34618C9.92066 3.87657 11.0893 4.24515 11.4939 4.36202C11.5029 4.40697 11.5118 4.44293 11.5298 4.48787C11.5658 4.56878 11.6287 4.63171 11.7096 4.67666C11.7905 4.72161 11.8714 4.73959 11.9613 4.7306C12.0063 4.72161 12.0512 4.71262 12.0872 4.69464C12.1681 4.65868 12.231 4.59575 12.276 4.52383H12.2939C12.6805 4.57777 13.957 4.73959 14.2717 4.28111C14.3436 4.17324 14.3975 3.98445 14.2447 3.73274Z" fill="#F19123"/>
<path d="M6.15234 3.81368L6.17032 3.80469L6.15234 3.81368Z" fill="white"/>
<path d="M6.33421 7.61653L5.66898 4.60498L3.30469 5.13537L3.88902 7.76036L6.33421 7.61653Z" fill="#DF2228"/>
<path d="M5.17211 4.39809C5.32493 3.90366 5.59462 3.3463 5.93623 3.39125C5.99017 3.40024 6.04411 3.41822 6.08906 3.4362C6.16097 3.47216 6.20592 3.5171 6.20592 3.53508C6.21491 3.71488 5.76543 4.07447 5.17211 4.39809ZM2.32237 4.50597C2.2954 4.479 2.28641 4.44304 2.28641 4.39809C2.28641 4.36214 2.2954 4.32618 2.32237 4.29022C2.35833 4.24527 2.39429 4.20931 2.43924 4.17335C2.7359 3.98457 3.23033 4.36214 3.58992 4.74869C2.91569 4.72172 2.43025 4.64082 2.32237 4.50597ZM6.32279 3.00469C6.2239 2.95075 6.12501 2.92378 6.01714 2.9058C5.17211 2.80692 4.79454 3.97558 4.6507 4.53294C4.56081 4.48799 4.46192 4.479 4.37202 4.49698C4.32708 4.50597 4.28213 4.52395 4.23718 4.55092C4.20122 4.57789 4.16526 4.61385 4.1293 4.6498C3.76971 4.2183 2.89771 3.31034 2.17854 3.7778C2.08864 3.84073 2.00773 3.91265 1.94481 4.00255C1.72905 4.29022 1.76501 4.50597 1.83693 4.64082C2.1246 5.21616 3.64386 5.22515 4.10233 5.20717H4.21021C4.23718 5.22515 4.25516 5.24313 4.28213 5.25212C4.3091 5.26111 4.33607 5.27009 4.36303 5.27908C4.39 5.28807 4.42596 5.28807 4.45293 5.28807C4.4799 5.28807 4.51586 5.28807 4.54283 5.27908C4.5698 5.27009 4.59677 5.26111 4.62374 5.25212C4.6507 5.24313 4.67767 5.22515 4.69565 5.20717C4.72262 5.18919 4.7406 5.17121 4.75858 5.15323C4.77656 5.13525 4.79454 5.10828 4.81252 5.08131L4.9204 5.03636C5.33392 4.84758 6.69137 4.16436 6.70036 3.5171C6.70036 3.36428 6.63743 3.14853 6.3138 2.98671" fill="#DF2228"/>
<path d="M14.9178 21.4787C14.2346 18.3952 13.7851 12.7317 14.756 7.95819C14.747 7.84132 14.6931 7.72446 14.6122 7.63456C14.5672 7.58961 14.5223 7.55365 14.4683 7.53567C14.4144 7.5087 14.3515 7.49971 14.2975 7.49072C12.0321 7.62557 3.69867 8.12 1.47822 8.24586C1.41529 8.24586 1.35236 8.26384 1.29842 8.2908C1.24449 8.31777 1.19055 8.35373 1.15459 8.39868C1.10964 8.44363 1.08267 8.49757 1.0557 8.55151C1.02873 8.60544 1.01974 8.66837 1.01974 8.7313C1.01974 8.74029 1.01974 8.74928 1.01974 8.75827C1.52317 11.6619 1.69397 16.7771 0.660156 21.5326C0.660156 21.5866 0.669146 21.6405 0.696115 21.6944C0.714095 21.7484 0.750053 21.7933 0.786012 21.8383C0.85793 21.9192 0.956816 21.9821 1.06469 22.0001H14.5223C14.5762 21.9911 14.6301 21.9731 14.6841 21.9461C14.738 21.9192 14.783 21.8832 14.8189 21.8383C14.8908 21.7484 14.9358 21.6405 14.9358 21.5236C14.9178 21.5057 14.9178 21.4967 14.9178 21.4787Z" fill="#1E93D1"/>
<path d="M11.187 12.4797C11.187 12.5966 11.178 12.7045 11.16 12.8213C11.151 12.9292 11.1241 13.0461 11.1061 13.154C11.0881 13.2618 11.0521 13.3787 11.0162 13.4776C10.9802 13.5765 10.9443 13.6933 10.8993 13.7922C10.8544 13.8911 10.8004 13.999 10.7465 14.0979C10.6926 14.1968 10.6296 14.2957 10.5667 14.3856C10.5038 14.4754 10.4319 14.5653 10.3599 14.6552C10.288 14.7451 10.2071 14.826 10.1262 14.907C10.0453 14.9879 9.95541 15.0598 9.8745 15.1317C9.7846 15.2036 9.6947 15.2665 9.59582 15.3295C9.49693 15.3924 9.40703 15.4463 9.29916 15.5003C9.20027 15.5542 9.09239 15.5992 8.99351 15.6441C8.88563 15.6891 8.77775 15.725 8.66988 15.761C8.562 15.7969 8.45413 15.8239 8.33726 15.8419C8.22938 15.8599 8.11252 15.8778 7.99565 15.8868C7.87879 15.8958 7.77091 15.9048 7.65404 15.9048C7.53718 15.9048 7.4293 15.8958 7.31244 15.8868C7.19557 15.8778 7.08769 15.8599 6.97083 15.8419C6.85396 15.8239 6.74608 15.7969 6.63821 15.761C6.53033 15.725 6.42246 15.6891 6.31458 15.6441C6.2067 15.5992 6.10782 15.5542 6.00893 15.5003C5.91004 15.4463 5.81116 15.3924 5.71227 15.3295C5.61338 15.2665 5.52349 15.2036 5.43359 15.1317C5.34369 15.0598 5.26279 14.9879 5.18188 14.907C5.10097 14.826 5.02006 14.7451 4.94815 14.6552C4.87623 14.5653 4.80431 14.4754 4.74138 14.3856C4.67845 14.2957 4.61553 14.1968 4.56159 14.0979C4.50765 13.999 4.45371 13.9001 4.40876 13.7922C4.36382 13.6844 4.32786 13.5855 4.2919 13.4776C4.25594 13.3697 4.22897 13.2618 4.202 13.154C4.17503 13.0461 4.15705 12.9292 4.14806 12.8213C4.13008 12.7135 4.13008 12.5966 4.12109 12.4797C4.12109 12.4168 4.13008 12.3539 4.15705 12.291C4.18402 12.228 4.21998 12.1831 4.26493 12.1291C4.30988 12.0842 4.36382 12.0482 4.42674 12.0213C4.66947 11.9224 4.95714 12.0392 5.05602 12.282C5.08299 12.3449 5.09198 12.4078 5.09198 12.4707C5.09198 12.5517 5.09198 12.6416 5.10097 12.7225C5.10996 12.8034 5.11895 12.8843 5.13693 12.9742C5.15491 13.0551 5.17289 13.136 5.19986 13.2169C5.22683 13.2978 5.2538 13.3787 5.28076 13.4506C5.30773 13.5315 5.35268 13.6034 5.38864 13.6754C5.4246 13.7473 5.46955 13.8192 5.5145 13.8911C5.55944 13.963 5.61338 14.026 5.66732 14.0889C5.72126 14.1518 5.7752 14.2147 5.83813 14.2777C5.90105 14.3406 5.95499 14.3945 6.02691 14.4485C6.09883 14.5024 6.16175 14.5474 6.22468 14.6013C6.2966 14.6463 6.36852 14.6912 6.44043 14.7272C6.51235 14.7631 6.58427 14.7991 6.66518 14.835C6.74608 14.871 6.818 14.898 6.89891 14.9159C6.97982 14.9429 7.06072 14.9609 7.14163 14.9789C7.22254 14.9968 7.30345 15.0058 7.39334 15.0148C7.47425 15.0238 7.56415 15.0238 7.64505 15.0238C7.72596 15.0238 7.81586 15.0238 7.89677 15.0148C7.97767 15.0058 8.05858 14.9968 8.14848 14.9789C8.23837 14.9609 8.31029 14.9429 8.3912 14.9159C8.47211 14.889 8.55301 14.862 8.62493 14.835C8.70584 14.7991 8.77775 14.7631 8.84967 14.7272C8.92159 14.6912 8.99351 14.6463 9.06543 14.6013C9.13734 14.5564 9.20027 14.5024 9.2632 14.4485C9.32613 14.3945 9.38905 14.3406 9.45198 14.2777C9.51491 14.2147 9.56885 14.1608 9.62279 14.0889C9.67672 14.017 9.72167 13.954 9.77561 13.8911C9.82955 13.8282 9.86551 13.7473 9.90147 13.6754C9.93742 13.6034 9.97338 13.5225 10.0093 13.4506C10.0453 13.3697 10.0723 13.2978 10.0903 13.2169C10.1172 13.136 10.1352 13.0551 10.1532 12.9742C10.1712 12.8933 10.1801 12.8124 10.1891 12.7225C10.1981 12.6326 10.1981 12.5517 10.1981 12.4707C10.1981 12.3449 10.2521 12.219 10.342 12.1291C10.3869 12.0842 10.4408 12.0482 10.5038 12.0213C10.6206 11.9763 10.7555 11.9763 10.8724 12.0213C10.9353 12.0482 10.9802 12.0842 11.0342 12.1291C11.0791 12.1741 11.1151 12.228 11.142 12.291C11.178 12.3539 11.187 12.4168 11.187 12.4797ZM4.6425 11.0773C4.57957 11.0773 4.51664 11.0684 4.45371 11.0414C4.39078 11.0144 4.34584 10.9874 4.2919 10.9425C4.15705 10.8077 4.1121 10.5919 4.18402 10.4121C4.22897 10.2952 4.32786 10.1964 4.44472 10.1514C4.50765 10.1244 4.57058 10.1154 4.63351 10.1154C4.69643 10.1154 4.75936 10.1244 4.82229 10.1514C4.88522 10.1784 4.93017 10.2143 4.9841 10.2593C5.02905 10.3042 5.06501 10.3582 5.09198 10.4211C5.19087 10.6728 5.074 10.9515 4.82229 11.0594C4.76835 11.0684 4.70542 11.0773 4.6425 11.0773ZM10.7015 11.0504C10.6386 11.0504 10.5667 11.0414 10.5128 11.0144C10.4498 10.9874 10.3959 10.9605 10.351 10.9155C10.306 10.8706 10.27 10.8166 10.2431 10.7537C10.1352 10.511 10.2521 10.2233 10.4948 10.1154C10.5577 10.0885 10.6386 10.0705 10.7105 10.0795C10.7735 10.0795 10.8364 10.0975 10.8903 10.1244C10.9443 10.1514 10.9982 10.1874 11.0432 10.2323C11.0881 10.2773 11.1241 10.3312 11.142 10.3851C11.187 10.502 11.187 10.6279 11.142 10.7447C11.0611 10.9245 10.8903 11.0414 10.7015 11.0504Z" fill="white"/>
</svg>
