<svg width="22" height="22" viewBox="0 0 22 22" fill="none" xmlns="http://www.w3.org/2000/svg">
<path d="M4.69813 14.2089C4.83037 13.1141 5.27939 12.5011 6.12554 11.8728C7.3363 11.0217 8.84863 11.5031 8.84863 11.5031V8.64726C9.21637 8.63778 9.58419 8.65961 9.94778 8.71233V12.3876C9.94778 12.3876 8.43588 11.9062 7.2252 12.7577C6.37947 13.3856 5.92952 13.9991 5.79775 15.0939C5.79362 15.6884 5.90518 16.4655 6.41899 17.1375C6.2919 17.0723 6.16244 16.9981 6.03052 16.9148C4.89877 16.1548 4.69262 15.0147 4.69813 14.2089ZM16.1925 3.36667C15.3596 2.45402 15.0446 1.53256 14.9308 0.885254H15.9785C15.9785 0.885254 15.7696 2.58251 17.292 4.25161L17.3132 4.27405C16.9028 4.01594 16.5265 3.71127 16.1925 3.36667ZM21.2396 5.95413V9.55543C21.2396 9.55543 19.9027 9.50314 18.9133 9.25141C17.5317 8.89933 16.6437 8.3594 16.6437 8.3594C16.6437 8.3594 16.0303 7.9744 15.9808 7.94758V15.3843C15.9808 15.7984 15.8674 16.8325 15.5216 17.695C15.0703 18.8233 14.3738 19.5639 14.2457 19.7153C14.2457 19.7153 13.3986 20.7163 11.9042 21.3906C10.5571 21.9987 9.37434 21.9833 9.02082 21.9987C9.02082 21.9987 6.97635 22.0797 5.13661 20.884C4.73877 20.6205 4.36742 20.322 4.02734 19.9925L4.03653 19.9991C5.87672 21.1947 7.92074 21.1137 7.92074 21.1137C8.27477 21.0983 9.45743 21.1137 10.8041 20.5056C12.2972 19.8314 13.1456 18.8303 13.1456 18.8303C13.2724 18.679 13.9721 17.9383 14.4215 16.8097C14.7664 15.9476 14.8807 14.913 14.8807 14.499V7.0631C14.9303 7.09034 15.5432 7.47534 15.5432 7.47534C15.5432 7.47534 16.4317 8.01578 17.8132 8.36735C18.803 8.61908 20.1396 8.67146 20.1396 8.67146V5.84941C20.5968 5.95193 20.9867 5.97968 21.2396 5.95413Z" fill="#EE1D52"/>
<path d="M20.1423 5.84941V8.67053C20.1423 8.67053 18.8057 8.61815 17.8159 8.36651C16.4344 8.01442 15.5459 7.47449 15.5459 7.47449C15.5459 7.47449 14.933 7.0895 14.8834 7.06217V14.4998C14.8834 14.9139 14.77 15.9484 14.4243 16.8105C13.9729 17.9393 13.2764 18.6798 13.1483 18.8312C13.1483 18.8312 12.3008 19.8323 10.8068 20.5065C9.46014 21.1146 8.27747 21.0992 7.92344 21.1146C7.92344 21.1146 5.87942 21.1956 4.03923 20L4.03005 19.9934C3.83576 19.8052 3.65288 19.6066 3.48231 19.3985C2.89508 18.6824 2.53513 17.8358 2.44467 17.5942V17.5912C2.29913 17.1714 1.99335 16.1632 2.03514 15.1867C2.10906 13.464 2.7151 12.4065 2.87534 12.1416C3.29971 11.4192 3.85166 10.7729 4.50662 10.2314C5.08459 9.76409 5.7397 9.3923 6.44505 9.13126C7.2076 8.82478 8.02413 8.66046 8.85091 8.64726V11.5031C8.85091 11.5031 7.3385 11.0235 6.12825 11.8728C5.28209 12.5011 4.83306 13.1141 4.70083 14.2089C4.69532 15.0147 4.90147 16.1548 6.03229 16.9153C6.16421 16.9989 6.29367 17.0731 6.42076 17.1379C6.61825 17.3947 6.85873 17.6185 7.13238 17.8002C8.23703 18.4994 9.16263 18.5482 10.3463 18.0941C11.1355 17.7905 11.7296 17.1062 12.0051 16.348C12.1782 15.8746 12.1759 15.3979 12.1759 14.9051V0.885254H14.9307C15.0446 1.53256 15.3595 2.45402 16.1924 3.36667C16.5264 3.71127 16.9028 4.01594 17.3131 4.27405C17.4344 4.39945 18.0542 5.01948 18.8498 5.40012C19.2612 5.59688 19.6949 5.74763 20.1423 5.84941Z" fill="black"/>
<path d="M1.34766 16.7173V16.7195L1.41601 16.9048C1.40816 16.8832 1.38275 16.8176 1.34766 16.7173Z" fill="#69C9D0"/>
<path d="M6.44441 9.13135C5.73905 9.39247 5.08395 9.76427 4.50598 10.2315C3.85081 10.7742 3.29899 11.422 2.87516 12.1457C2.71492 12.4098 2.10887 13.468 2.03495 15.1908C1.99317 16.1673 2.29895 17.1755 2.44449 17.5952V17.5983C2.53632 17.8377 2.8949 18.6843 3.48213 19.4025C3.6527 19.6107 3.83558 19.8094 4.02987 19.9974C3.40738 19.5848 2.85221 19.086 2.38251 18.5171C1.80033 17.8074 1.44129 16.9695 1.34763 16.7222C1.34752 16.7204 1.34752 16.7186 1.34763 16.7169V16.7138C1.20163 16.2944 0.894935 15.2858 0.937632 14.3081C1.01155 12.5853 1.61761 11.5279 1.77784 11.263C2.20155 10.5391 2.75339 9.89136 3.40866 9.34881C3.98651 8.88131 4.64164 8.50951 5.3471 8.24864C5.78713 8.07366 6.24556 7.94462 6.71441 7.86364C7.42095 7.74544 8.14263 7.73511 8.85255 7.83327V8.64735C8.02502 8.66029 7.20764 8.82462 6.44441 9.13135Z" fill="#69C9D0"/>
<path d="M14.9336 0.88537H12.1788V14.9057C12.1788 15.3985 12.1788 15.8738 12.0081 16.3486C11.7299 17.1064 11.138 17.7906 10.3492 18.0943C9.16518 18.5502 8.23958 18.4996 7.13535 17.8003C6.8612 17.6194 6.62013 17.3964 6.42188 17.1402C7.36263 17.6212 8.20463 17.6128 9.24777 17.2116C10.0361 16.9079 10.6289 16.2236 10.9061 15.4654C11.0797 14.9919 11.0774 14.5154 11.0774 14.0229V0H14.8813C14.8813 0 14.8386 0.348513 14.9336 0.88537ZM20.1429 5.06933V5.84953C19.6964 5.74759 19.2635 5.59684 18.8528 5.40025C18.0571 5.01961 17.4372 4.39958 17.3161 4.27416C17.4567 4.36267 17.6027 4.44319 17.7531 4.51531C18.7205 4.97824 19.6732 5.11641 20.1429 5.06933Z" fill="#69C9D0"/>
</svg>
