<svg width="46" height="46" viewBox="0 0 46 46" fill="none" xmlns="http://www.w3.org/2000/svg">
<g clip-path="url(#clip0_2201_699)">
<rect width="46" height="46" rx="8" fill="white"/>
<path d="M46 0H0V46H46V0Z" fill="url(#paint0_linear_2201_699)"/>
<path d="M23.1025 39.1074C22.8387 39.1094 22.5788 39.0414 22.3494 38.9115C20.3856 37.7756 5.83782 28.6545 5.28855 28.3759C4.87019 28.181 4.58473 27.7814 4.53551 27.3227V14.529C4.52469 14.0516 4.76093 13.6017 5.1596 13.3399L5.26492 13.2798C6.67255 12.4067 11.3837 9.53237 12.1279 9.11795C12.2991 9.01657 12.494 8.96243 12.6919 8.95947C12.8779 8.96144 13.061 9.00771 13.2264 9.09531C13.2264 9.09531 19.8186 13.392 20.8276 13.7759C21.5354 14.1008 22.3071 14.2632 23.0857 14.2504C23.9677 14.2691 24.8398 14.0565 25.6145 13.6332C26.6009 13.1135 32.8998 9.11795 32.9667 9.11795C33.1252 9.02247 33.3083 8.97227 33.4933 8.97522C33.6922 8.97522 33.8871 9.03035 34.0574 9.1337C34.9157 9.60816 40.7549 13.1824 41.003 13.3408C41.4135 13.5889 41.6625 14.0348 41.6576 14.5152V27.3089C41.6113 27.7686 41.3249 28.1702 40.9046 28.3621C40.3553 28.6634 25.8537 37.7844 23.8516 38.8977C23.6232 39.0326 23.3643 39.1054 23.0995 39.1084" fill="url(#paint1_linear_2201_699)"/>
<path d="M23.0244 39.1073H23.0992C23.363 39.1093 23.6219 39.0413 23.8513 38.9114C25.8151 37.7755 40.355 28.6544 40.9043 28.3758C41.3246 28.1829 41.6111 27.7823 41.6563 27.3226V14.5289C41.6593 14.3123 41.6101 14.0977 41.5136 13.9048L23.0234 24.0565V39.1083" fill="url(#paint2_linear_2201_699)"/>
<path d="M22.9615 38.9265H22.8866C22.6258 38.9284 22.3689 38.8615 22.1425 38.7325C20.1994 37.6084 5.81494 28.5848 5.27158 28.3092C4.85618 28.1182 4.57268 27.7215 4.5274 27.2667V14.6099C4.52543 14.3953 4.57367 14.1836 4.66915 13.9917L22.9624 24.0361V38.9274" fill="url(#paint3_linear_2201_699)"/>
<path d="M14.0586 18.7168H15.7448V26.8299H18.6516V28.4314H14.0665L14.0596 18.7168" fill="white"/>
<path d="M22.5547 21.1501C23.4475 21.1393 24.295 21.5458 24.8443 22.2506V21.2948H26.4173V28.4442H24.8443V27.4884C24.295 28.1932 23.4485 28.5997 22.5547 28.5889C20.5938 28.5889 19.1055 26.9135 19.1055 24.868C19.1055 22.8225 20.5938 21.1501 22.5547 21.1501ZM22.8411 22.5824C21.5673 22.5824 20.7247 23.5844 20.7247 24.868C20.7247 26.1516 21.5821 27.1576 22.8411 27.1576C24.1001 27.1576 24.9575 26.1556 24.9575 24.868C24.9575 23.5805 24.1139 22.5824 22.8411 22.5824Z" fill="white"/>
<path d="M27.6406 27.203L31.39 22.7232H27.6967V21.2949H33.4218V22.5539L29.6861 27.016H33.5064V28.4443H27.6406V27.203Z" fill="white"/>
</g>
<defs>
<linearGradient id="paint0_linear_2201_699" x1="22.5388" y1="-39.3182" x2="23.1334" y2="40.9148" gradientUnits="userSpaceOnUse">
<stop offset="0.34" stop-color="#5B8BEB"/>
<stop offset="0.78" stop-color="#2741A2"/>
<stop offset="1" stop-color="#112283"/>
</linearGradient>
<linearGradient id="paint1_linear_2201_699" x1="4.6341" y1="24.1157" x2="41.4187" y2="23.8306" gradientUnits="userSpaceOnUse">
<stop stop-color="#FFB900"/>
<stop offset="0.34" stop-color="#F38000"/>
<stop offset="0.57" stop-color="#F83C72"/>
<stop offset="0.78" stop-color="#FC1CBE"/>
<stop offset="0.93" stop-color="#FE08ED"/>
<stop offset="1" stop-color="#FF00FF"/>
</linearGradient>
<linearGradient id="paint2_linear_2201_699" x1="14.9671" y1="36.156" x2="52.4699" y2="15.3868" gradientUnits="userSpaceOnUse">
<stop stop-color="#EE0A3F"/>
<stop offset="1" stop-color="#EE0A3F"/>
</linearGradient>
<linearGradient id="paint3_linear_2201_699" x1="18.8983" y1="30.0812" x2="0.777365" y2="15.4803" gradientUnits="userSpaceOnUse">
<stop stop-color="#ED6600"/>
<stop offset="1" stop-color="#F98200"/>
</linearGradient>
<clipPath id="clip0_2201_699">
<rect width="46" height="46" rx="8" fill="white"/>
</clipPath>
</defs>
</svg>
