<svg width="46" height="46" viewBox="0 0 46 46" fill="none" xmlns="http://www.w3.org/2000/svg">
<g clip-path="url(#clip0_2201_644)">
<path d="M36.1429 0H9.85714C4.41319 0 0 4.41319 0 9.85714V36.1429C0 41.5868 4.41319 46 9.85714 46H36.1429C41.5868 46 46 41.5868 46 36.1429V9.85714C46 4.41319 41.5868 0 36.1429 0Z" fill="url(#paint0_radial_2201_644)"/>
<path d="M36.1429 0H9.85714C4.41319 0 0 4.41319 0 9.85714V36.1429C0 41.5868 4.41319 46 9.85714 46H36.1429C41.5868 46 46 41.5868 46 36.1429V9.85714C46 4.41319 41.5868 0 36.1429 0Z" fill="url(#paint1_radial_2201_644)"/>
<path d="M36.1429 0H9.85714C4.41319 0 0 4.41319 0 9.85714V36.1429C0 41.5868 4.41319 46 9.85714 46H36.1429C41.5868 46 46 41.5868 46 36.1429V9.85714C46 4.41319 41.5868 0 36.1429 0Z" fill="url(#paint2_radial_2201_644)"/>
<path d="M34.4989 13.9643C34.4989 15.3252 33.3955 16.4286 32.0346 16.4286C30.6737 16.4286 29.5703 15.3252 29.5703 13.9643C29.5703 12.6033 30.6737 11.5 32.0346 11.5C33.3955 11.5 34.4989 12.6033 34.4989 13.9643Z" fill="white"/>
<path fill-rule="evenodd" clip-rule="evenodd" d="M22.9994 31.2142C27.536 31.2142 31.2137 27.5365 31.2137 22.9999C31.2137 18.4633 27.536 14.7856 22.9994 14.7856C18.4629 14.7856 14.7852 18.4633 14.7852 22.9999C14.7852 27.5365 18.4629 31.2142 22.9994 31.2142ZM22.9994 27.9285C25.7215 27.9285 27.928 25.722 27.928 22.9999C27.928 20.2779 25.7215 18.0714 22.9994 18.0714C20.2774 18.0714 18.0709 20.2779 18.0709 22.9999C18.0709 25.722 20.2774 27.9285 22.9994 27.9285Z" fill="white"/>
<path fill-rule="evenodd" clip-rule="evenodd" d="M6.57031 22.3427C6.57031 16.8222 6.57031 14.0619 7.64468 11.9534C8.58971 10.0986 10.0977 8.59069 11.9524 7.64565C14.0609 6.57129 16.8212 6.57129 22.3417 6.57129H23.656C29.1765 6.57129 31.9368 6.57129 34.0453 7.64565C35.9001 8.59069 37.4081 10.0986 38.353 11.9534C39.4275 14.0619 39.4275 16.8222 39.4275 22.3427V23.657C39.4275 29.1775 39.4275 31.9378 38.353 34.0463C37.4081 35.9011 35.9001 37.409 34.0453 38.354C31.9368 39.4284 29.1765 39.4284 23.656 39.4284H22.3417C16.8212 39.4284 14.0609 39.4284 11.9524 38.354C10.0977 37.409 8.58971 35.9011 7.64468 34.0463C6.57031 31.9378 6.57031 29.1775 6.57031 23.657V22.3427ZM22.3417 9.857H23.656C26.4706 9.857 28.3837 9.85957 29.8626 9.98038C31.3032 10.0981 32.0399 10.3114 32.5537 10.5732C33.7902 11.2033 34.7954 12.2086 35.4255 13.445C35.6873 13.9589 35.9007 14.6955 36.0184 16.1362C36.1391 17.6151 36.1417 19.5282 36.1417 22.3427V23.657C36.1417 26.4715 36.1391 28.3847 36.0184 29.8636C35.9007 31.3042 35.6873 32.0408 35.4255 32.5547C34.7954 33.7911 33.7902 34.7964 32.5537 35.4264C32.0399 35.6883 31.3032 35.9017 29.8626 36.0193C28.3837 36.1401 26.4706 36.1427 23.656 36.1427H22.3417C19.5272 36.1427 17.6141 36.1401 16.1352 36.0193C14.6946 35.9017 13.9579 35.6883 13.444 35.4264C12.2076 34.7964 11.2023 33.7911 10.5723 32.5547C10.3104 32.0408 10.0971 31.3042 9.97941 29.8636C9.85859 28.3847 9.85603 26.4715 9.85603 23.657V22.3427C9.85603 19.5282 9.85859 17.6151 9.97941 16.1362C10.0971 14.6955 10.3104 13.9589 10.5723 13.445C11.2023 12.2086 12.2076 11.2033 13.444 10.5732C13.9579 10.3114 14.6946 10.0981 16.1352 9.98038C17.6141 9.85957 19.5272 9.857 22.3417 9.857Z" fill="white"/>
</g>
<defs>
<radialGradient id="paint0_radial_2201_644" cx="0" cy="0" r="1" gradientUnits="userSpaceOnUse" gradientTransform="translate(16.4286 34.5) rotate(-55.3758) scale(41.9251)">
<stop stop-color="#B13589"/>
<stop offset="0.79309" stop-color="#C62F94"/>
<stop offset="1" stop-color="#8A3AC8"/>
</radialGradient>
<radialGradient id="paint1_radial_2201_644" cx="0" cy="0" r="1" gradientUnits="userSpaceOnUse" gradientTransform="translate(14.7857 47.6429) rotate(-65.1363) scale(37.119)">
<stop stop-color="#E0E8B7"/>
<stop offset="0.444662" stop-color="#FB8A2E"/>
<stop offset="0.71474" stop-color="#E2425C"/>
<stop offset="1" stop-color="#E2425C" stop-opacity="0"/>
</radialGradient>
<radialGradient id="paint2_radial_2201_644" cx="0" cy="0" r="1" gradientUnits="userSpaceOnUse" gradientTransform="translate(-2.46429 1.64286) rotate(-8.1301) scale(63.8922 13.6659)">
<stop offset="0.156701" stop-color="#406ADC"/>
<stop offset="0.467799" stop-color="#6A45BE"/>
<stop offset="1" stop-color="#6A45BE" stop-opacity="0"/>
</radialGradient>
<clipPath id="clip0_2201_644">
<rect width="46" height="46" fill="white"/>
</clipPath>
</defs>
</svg>
