<svg width="46" height="46" viewBox="0 0 46 46" fill="none" xmlns="http://www.w3.org/2000/svg">
<g clip-path="url(#clip0_2201_636)">
<path d="M9.71505 29.7102C9.99155 27.421 10.9304 26.1393 12.6996 24.8255C15.2312 23.046 18.3934 24.0525 18.3934 24.0525V18.0812C19.1623 18.0614 19.9314 18.107 20.6916 18.2173V25.9019C20.6916 25.9019 17.5303 24.8954 14.9989 26.6758C13.2306 27.9887 12.2898 29.2714 12.0143 31.5606C12.0056 32.8036 12.2389 34.4285 13.3132 35.8334C13.0475 35.6972 12.7768 35.5421 12.501 35.368C10.1346 33.7788 9.70354 31.395 9.71505 29.7102ZM33.7487 7.03998C32.0072 5.13171 31.3485 3.20502 31.1106 1.85156H33.3012C33.3012 1.85156 32.8644 5.40036 36.0478 8.8903L36.092 8.93722C35.2339 8.39754 34.4471 7.76051 33.7487 7.03998ZM44.3017 12.4501V19.9801C44.3017 19.9801 41.5064 19.8708 39.4376 19.3444C36.5488 18.6083 34.6922 17.4793 34.6922 17.4793C34.6922 17.4793 33.4097 16.6743 33.306 16.6182V32.1678C33.306 33.0336 33.0689 35.1958 32.346 36.9992C31.4023 39.3585 29.9461 40.9069 29.6782 41.2234C29.6782 41.2234 27.907 43.3166 24.7822 44.7263C21.9656 45.9978 19.4926 45.9656 18.7534 45.9978C18.7534 45.9978 14.4786 46.1671 10.6319 43.6672C9.80003 43.1161 9.02357 42.4921 8.3125 41.803L8.33171 41.8168C12.1794 44.3167 16.4532 44.1474 16.4532 44.1474C17.1935 44.1152 19.6663 44.1474 22.4821 42.8758C25.604 41.4663 27.378 39.3731 27.378 39.3731C27.6431 39.0566 29.106 37.508 30.0458 35.148C30.7668 33.3456 31.0058 31.1823 31.0058 30.3166V14.7689C31.1095 14.8258 32.3911 15.6308 32.3911 15.6308C32.3911 15.6308 34.2488 16.7608 37.1374 17.496C39.2071 18.0223 42.0017 18.1318 42.0017 18.1318V12.2312C42.9578 12.4455 43.7729 12.5036 44.3017 12.4501Z" fill="#EE1D52"/>
<path d="M42.0014 12.2312V18.1299C42.0014 18.1299 39.2067 18.0204 37.1371 17.4942C34.2484 16.758 32.3908 15.6291 32.3908 15.6291C32.3908 15.6291 31.1091 14.8241 31.0054 14.7669V30.3184C31.0054 31.1843 30.7684 33.3473 30.0455 35.1498C29.1018 37.51 27.6455 39.0584 27.3776 39.3749C27.3776 39.3749 25.6056 41.4681 22.4817 42.8778C19.6659 44.1493 17.1931 44.1171 16.4529 44.1493C16.4529 44.1493 12.179 44.3187 8.33131 41.8187L8.31212 41.8049C7.90589 41.4115 7.5235 40.9962 7.16684 40.561C5.939 39.0639 5.18637 37.2936 4.99724 36.7885V36.7821C4.69294 35.9044 4.05357 33.7964 4.14094 31.7547C4.2955 28.1525 5.56269 25.9415 5.89772 25.3876C6.78504 23.8772 7.93913 22.5257 9.3086 21.3936C10.5171 20.4164 11.8868 19.639 13.3617 19.0932C14.9561 18.4524 16.6634 18.1088 18.3921 18.0812V24.0525C18.3921 24.0525 15.2298 23.0497 12.6993 24.8255C10.93 26.1393 9.99115 27.421 9.71467 29.7102C9.70315 31.395 10.1342 33.7788 12.4986 35.3688C12.7745 35.5436 13.0451 35.6988 13.3109 35.8343C13.7238 36.3713 14.2266 36.8393 14.7988 37.2191C17.1085 38.6812 19.0439 38.7833 21.5189 37.8337C23.169 37.1989 24.4112 35.7682 24.9872 34.1828C25.3492 33.1929 25.3445 32.1963 25.3445 31.1659V1.85156H31.1043C31.3425 3.20502 32.001 5.13171 33.7424 7.03998C34.4409 7.76051 35.2279 8.39754 36.0858 8.93722C36.3393 9.19944 37.6353 10.4959 39.2989 11.2917C40.1591 11.7031 41.066 12.0183 42.0014 12.2312Z" fill="black"/>
<path d="M2.70703 34.9541V34.9587L2.84995 35.3462C2.83353 35.301 2.78042 35.1639 2.70703 34.9541Z" fill="#69C9D0"/>
<path d="M13.3625 19.0928C11.8876 19.6388 10.5179 20.4162 9.30938 21.3932C7.93948 22.5279 6.78568 23.8823 5.89948 25.3955C5.56444 25.9477 4.29725 28.1605 4.14269 31.7626C4.05533 33.8043 4.69469 35.9123 4.999 36.79V36.7964C5.19099 37.2971 5.94075 39.0672 7.1686 40.5689C7.52525 41.0041 7.90764 41.4196 8.31387 41.8129C7.0123 40.95 5.8515 39.907 4.8694 38.7176C3.65212 37.2336 2.9014 35.4817 2.70557 34.9645C2.70534 34.9608 2.70534 34.9571 2.70557 34.9536V34.947C2.40029 34.0702 1.75901 31.9613 1.84829 29.9169C2.00285 26.3148 3.27005 24.1038 3.60509 23.5499C4.49103 22.0363 5.64487 20.6819 7.01499 19.5475C8.22321 18.57 9.59304 17.7926 11.0681 17.2472C11.9882 16.8813 12.9467 16.6115 13.927 16.4422C15.4043 16.195 16.9133 16.1734 18.3977 16.3786V18.0808C16.6674 18.1079 14.9583 18.4515 13.3625 19.0928Z" fill="#69C9D0"/>
<path d="M31.1098 1.85123H25.3498V31.1665C25.3498 32.1969 25.3498 33.1907 24.9928 34.1834C24.411 35.7679 23.1735 37.1985 21.5242 37.8335C19.0485 38.7867 17.1131 38.6809 14.8043 37.2188C14.2311 36.8406 13.727 36.3742 13.3125 35.8387C15.2795 36.8443 17.0401 36.8268 19.2212 35.9878C20.8696 35.3528 22.1089 33.9221 22.6887 32.3368C23.0516 31.3468 23.0468 30.3504 23.0468 29.3207V0H31.0003C31.0003 0 30.9112 0.728709 31.1098 1.85123ZM42.0019 10.5995V12.2308C41.0683 12.0177 40.1632 11.7025 39.3044 11.2914C37.6408 10.4955 36.3446 9.19912 36.0913 8.93689C36.3853 9.12195 36.6905 9.29031 37.0051 9.4411C39.0278 10.409 41.0198 10.698 42.0019 10.5995Z" fill="#69C9D0"/>
</g>
<defs>
<clipPath id="clip0_2201_636">
<rect width="46" height="46" fill="white"/>
</clipPath>
</defs>
</svg>
