<svg width="46" height="46" viewBox="0 0 46 46" fill="none" xmlns="http://www.w3.org/2000/svg">
<path d="M0 16.5555C0 10.8736 4.60606 6.26758 10.2879 6.26758H35.7121C41.3939 6.26758 46 10.8736 46 16.5555V29.445C46 35.1268 41.3939 39.7329 35.7121 39.7329H10.2879C4.60606 39.7329 0 35.1268 0 29.445V16.5555Z" fill="white"/>
<path d="M35.6157 7.68652H10.3822C5.43137 7.68652 1.41797 11.7111 1.41797 16.6756V29.3247C1.41797 34.2892 5.43137 38.3138 10.3822 38.3138H35.6157C40.5665 38.3138 44.5799 34.2892 44.5799 29.3247V16.6756C44.5799 11.7111 40.5665 7.68652 35.6157 7.68652ZM29.5533 23.6156L17.7508 29.2603C17.4363 29.4107 17.073 29.1808 17.073 28.8314V17.1891C17.073 16.8348 17.4458 16.6052 17.761 16.7653L29.5635 22.7629C29.9144 22.9412 29.9084 23.4458 29.5533 23.6156Z" fill="#F61C0D"/>
</svg>
