<svg width="22" height="22" viewBox="0 0 22 22" fill="none" xmlns="http://www.w3.org/2000/svg">
<path fill-rule="evenodd" clip-rule="evenodd" d="M10.6207 22.0002C16.4863 22.0002 21.2414 17.2451 21.2414 11.3795C21.2414 5.51383 16.4863 0.758789 10.6207 0.758789C4.75504 0.758789 0 5.51383 0 11.3795C0 13.2843 0.501448 15.072 1.37953 16.6178L0 22.0002L5.5492 20.7134C7.05624 21.5339 8.78399 22.0002 10.6207 22.0002ZM10.6207 20.3663C15.584 20.3663 19.6075 16.3428 19.6075 11.3795C19.6075 6.41628 15.584 2.39274 10.6207 2.39274C5.65745 2.39274 1.63396 6.41628 1.63396 11.3795C1.63396 13.2958 2.23376 15.0721 3.25588 16.5307L2.45093 19.5492L5.52271 18.7813C6.97127 19.7809 8.72763 20.3663 10.6207 20.3663Z" fill="#DFDFDF"/>
<path d="M19.7264 10.6205C19.7264 15.6482 15.6507 19.724 10.623 19.724C8.70534 19.724 6.92615 19.131 5.45879 18.1185L2.34712 18.8964L3.16252 15.8386C2.12713 14.3611 1.51953 12.5618 1.51953 10.6205C1.51953 5.59284 5.59528 1.51709 10.623 1.51709C15.6507 1.51709 19.7264 5.59284 19.7264 10.6205Z" fill="url(#paint0_linear_2164_8478)"/>
<path fill-rule="evenodd" clip-rule="evenodd" d="M10.6207 21.2414C16.4863 21.2414 21.2414 16.4863 21.2414 10.6207C21.2414 4.75504 16.4863 0 10.6207 0C4.75504 0 0 4.75504 0 10.6207C0 12.5255 0.501448 14.3132 1.37953 15.859L0 21.2414L5.5492 19.9546C7.05624 20.7751 8.78399 21.2414 10.6207 21.2414ZM10.6207 19.6075C15.584 19.6075 19.6075 15.584 19.6075 10.6207C19.6075 5.65745 15.584 1.63396 10.6207 1.63396C5.65745 1.63396 1.63396 5.65745 1.63396 10.6207C1.63396 12.537 2.23376 14.3133 3.25588 15.7719L2.45093 18.7904L5.52271 18.0225C6.97127 19.0221 8.72763 19.6075 10.6207 19.6075Z" fill="#35BC49"/>
<path d="M7.96565 5.68939C7.71318 5.18219 7.32576 5.22709 6.93446 5.22709C6.23509 5.22709 5.14453 6.06482 5.14453 7.62395C5.14453 8.9017 5.70758 10.3004 7.60485 12.3927C9.43586 14.412 11.8417 15.4566 13.839 15.421C15.8363 15.3855 16.2473 13.6667 16.2473 13.0862C16.2473 12.829 16.0876 12.7006 15.9777 12.6657C15.297 12.3391 14.0417 11.7304 13.7561 11.6161C13.4704 11.5018 13.3213 11.6565 13.2286 11.7406C12.9696 11.9874 12.4562 12.7149 12.2803 12.8785C12.1045 13.0422 11.8424 12.9593 11.7333 12.8975C11.332 12.7364 10.2437 12.2524 9.37631 11.4114C8.30347 10.3715 8.2405 10.0137 8.0384 9.69521C7.87674 9.44039 7.99539 9.28412 8.05456 9.21577C8.28571 8.94911 8.60487 8.53733 8.74802 8.33273C8.89109 8.12806 8.77753 7.8174 8.70933 7.62395C8.41612 6.79175 8.16767 6.0951 7.96565 5.68939Z" fill="white"/>
<defs>
<linearGradient id="paint0_linear_2164_8478" x1="18.5885" y1="3.79295" x2="1.51953" y2="19.724" gradientUnits="userSpaceOnUse">
<stop stop-color="#5BD066"/>
<stop offset="1" stop-color="#27B43E"/>
</linearGradient>
</defs>
</svg>
