<svg width="23" height="22" viewBox="0 0 23 22" fill="none" xmlns="http://www.w3.org/2000/svg">
<path d="M11.2422 22C17.3173 22 22.2422 17.0751 22.2422 11C22.2422 4.92487 17.3173 0 11.2422 0C5.16706 0 0.242188 4.92487 0.242188 11C0.242188 17.0751 5.16706 22 11.2422 22Z" fill="url(#paint0_linear_2164_8484)"/>
<path d="M15.3278 14.359L15.8152 11.2522H12.7661V9.23694C12.7661 8.38677 13.1913 7.55759 14.557 7.55759H15.9441V4.91256C15.9441 4.91256 14.6858 4.70264 13.4833 4.70264C10.971 4.70264 9.33054 6.19096 9.33054 8.88423V11.2522H6.53906V14.359H9.33054V21.87C9.89093 21.9561 10.4642 22.0001 11.0483 22.0001C11.6323 22.0001 12.2057 21.9561 12.7661 21.87V14.359H15.3278Z" fill="white"/>
<defs>
<linearGradient id="paint0_linear_2164_8484" x1="11.2422" y1="0" x2="11.2422" y2="21.9348" gradientUnits="userSpaceOnUse">
<stop stop-color="#18ACFE"/>
<stop offset="1" stop-color="#0163E0"/>
</linearGradient>
</defs>
</svg>
