<svg width="11" height="13" viewBox="0 0 11 13" fill="none" xmlns="http://www.w3.org/2000/svg">
<path d="M10.8451 4.24878C10.1944 1.31902 7.69691 0 5.50311 0C5.50311 0 5.50311 0 5.49691 0C3.30928 0 0.805621 1.31268 0.154916 4.24244C-0.570155 7.51463 1.38816 10.2859 3.16055 12.0298C3.81745 12.6766 4.66029 13 5.50311 13C6.34593 13 7.18874 12.6766 7.83945 12.0298C9.61184 10.2859 11.5702 7.52098 10.8451 4.24878ZM5.50311 7.42585C4.4248 7.42585 3.55098 6.53171 3.55098 5.42829C3.55098 4.32488 4.4248 3.43073 5.50311 3.43073C6.58142 3.43073 7.45522 4.32488 7.45522 5.42829C7.45522 6.53171 6.58142 7.42585 5.50311 7.42585Z" fill="#0064FF"/>
</svg>
