<?xml version="1.0" encoding="UTF-8"?>
<!DOCTYPE svg PUBLIC "-//W3C//DTD SVG 1.1//EN" "http://www.w3.org/Graphics/SVG/1.1/DTD/svg11.dtd">
<!-- Creator: CorelDRAW -->
<svg xmlns="http://www.w3.org/2000/svg" xml:space="preserve" width="0.0533307in" height="0.0533307in" version="1.1" style="shape-rendering:geometricPrecision; text-rendering:geometricPrecision; image-rendering:optimizeQuality; fill-rule:evenodd; clip-rule:evenodd"
viewBox="0 0 53.33 53.33"
 xmlns:xlink="http://www.w3.org/1999/xlink"
 xmlns:xodm="http://www.corel.com/coreldraw/odm/2003">
 <defs>
  <style type="text/css">
   <![CDATA[
    .fil2 {fill:#0E5087}
    .fil1 {fill:#4286F2}
    .fil0 {fill:white}
   ]]>
  </style>
     <mask id="id0">
  <linearGradient id="id1" gradientUnits="userSpaceOnUse" x1="69.25" y1="1.3" x2="33.79" y2="10.23">
   <stop offset="0" style="stop-opacity:1; stop-color:white"/>
   <stop offset="1" style="stop-opacity:0; stop-color:white"/>
  </linearGradient>
      <rect style="fill:url(#id1)" x="20.4" y="8.38" width="32.74" height="34"/>
     </mask>
     <mask id="id2">
  <linearGradient id="id3" gradientUnits="userSpaceOnUse" x1="49.38" y1="1.86" x2="17.66" y2="8.72">
   <stop offset="0" style="stop-opacity:1; stop-color:white"/>
   <stop offset="1" style="stop-opacity:0; stop-color:white"/>
  </linearGradient>
      <rect style="fill:url(#id3)" x="2.8" y="8.62" width="31.92" height="34.97"/>
     </mask>
 </defs>
 <g id="Layer_x0020_1">
  <metadata id="CorelCorpID_0Corel-Layer"/>
  <g id="_1613273673184">
   <rect class="fil0" x="-0" y="-0" width="53.33" height="53.33" rx="26.67" ry="26.67"/>
   <g>
    <path class="fil1" d="M25.27 33.03l18.44 -4.67 -1.01 4.3c-0.16,0.77 -0.98,1.7 -2.01,1.99l-16.83 4.26 1.4 -5.88zm2.42 -16.51l18.44 -4.67 -1.01 4.3c-0.15,0.77 -0.98,1.7 -2.01,1.99l-16.82 4.26 1.4 -5.88zm3.53 7.13l18.44 -4.67 -1.01 4.3c-0.15,0.77 -0.98,1.7 -2.01,1.99l-16.82 4.26 1.4 -5.88z"/>
    <path class="fil2" d="M7.67 34.24l12.56 -3.18 -8.56 -8.32 0.04 -0.12 1.79 -6.15 17.75 -4.38 -0.98 4.3c-0.15,0.78 -0.94,1.7 -1.94,2l-10.42 2.66 8.2 8.49 -0.01 0.04 0.02 -0 -1.11 4.67 -0.29 1.2 -1.35 0.34 -17.09 4.33 1.4 -5.88z"/>
    <path class="fil0" style="mask:url(#id0)" d="M25.27 33.03l18.44 -4.67 -1.01 4.3c-0.16,0.77 -0.98,1.7 -2.01,1.99l-16.83 4.26 1.4 -5.88zm2.42 -16.51l18.44 -4.67 -1.01 4.3c-0.15,0.77 -0.98,1.7 -2.01,1.99l-16.82 4.26 1.4 -5.88zm3.53 7.13l18.44 -4.67 -1.01 4.3c-0.15,0.77 -0.98,1.7 -2.01,1.99l-16.82 4.26 1.4 -5.88z"/>
    <path class="fil0" style="mask:url(#id2)" d="M7.67 34.24l12.56 -3.18 -8.56 -8.32 0.04 -0.12 1.79 -6.15 17.75 -4.38 -0.98 4.3c-0.15,0.78 -0.94,1.7 -1.94,2l-10.42 2.66 8.2 8.49 -0.01 0.04 0.02 -0 -1.11 4.67 -0.29 1.2 -1.35 0.34 -17.09 4.33 1.4 -5.88z"/>
   </g>
  </g>
 </g>
</svg>
