<svg width="23" height="22" viewBox="0 0 23 22" fill="none" xmlns="http://www.w3.org/2000/svg">
<path d="M11.2422 0C13.2719 0 15.138 0.50744 16.8404 1.52232C18.51 2.50446 19.8359 3.84673 20.8181 5.54911C21.7675 7.21875 22.2422 9.03571 22.2422 11C22.2422 13.0298 21.7511 14.8958 20.769 16.5982C19.7541 18.2679 18.4118 19.5937 16.7422 20.5759C15.0398 21.5253 13.2065 22 11.2422 22C9.21243 22 7.36272 21.5089 5.69308 20.5268C3.9907 19.5119 2.66481 18.1696 1.7154 16.5C0.733259 14.7976 0.242188 12.9643 0.242188 11C0.242188 8.97024 0.749628 7.12054 1.76451 5.45089C2.74665 3.74851 4.08891 2.42262 5.79129 1.47321C7.46094 0.491071 9.2779 0 11.2422 0ZM10.4565 2.50446C9.24516 2.89732 8.36123 4.01042 7.80469 5.84375C8.68862 6.07292 9.57254 6.22024 10.4565 6.28571V2.50446ZM12.0279 6.28571C12.9118 6.22024 13.7958 6.07292 14.6797 5.84375C14.1231 4.01042 13.2392 2.89732 12.0279 2.50446V6.28571ZM15.1217 3.24107C15.5472 3.89583 15.8746 4.5997 16.1038 5.35268C16.6276 5.09077 17.0205 4.87798 17.2824 4.71429C16.6603 4.15774 15.9401 3.66667 15.1217 3.24107ZM6.38058 5.35268C6.64248 4.56696 6.96987 3.8631 7.36272 3.24107C6.57701 3.63393 5.87314 4.14137 5.25112 4.76339L6.38058 5.35268ZM19.8359 10.2143C19.7377 8.6756 19.2303 7.25149 18.3136 5.94196C17.6589 6.36756 17.0696 6.67857 16.5458 6.875C16.7749 7.95536 16.9059 9.06845 16.9386 10.2143H19.8359ZM5.93862 6.875C5.44754 6.67857 4.87463 6.36756 4.21987 5.94196C3.33594 7.18601 2.81213 8.61012 2.64844 10.2143H5.54576C5.5785 9.06845 5.70945 7.95536 5.93862 6.875ZM10.4565 7.85714C9.34338 7.75893 8.3285 7.59524 7.41183 7.36607C7.24814 8.21726 7.14993 9.16667 7.11719 10.2143H10.4565V7.85714ZM15.3672 10.2143C15.3344 9.16667 15.2362 8.21726 15.0725 7.36607C14.1559 7.59524 13.141 7.75893 12.0279 7.85714V10.2143H15.3672ZM2.64844 11.7857C2.81213 13.3899 3.33594 14.814 4.21987 16.058C4.6782 15.7307 5.25112 15.4196 5.93862 15.125C5.70945 14.0446 5.5785 12.9315 5.54576 11.7857H2.64844ZM7.11719 11.7857C7.14993 12.8333 7.24814 13.7827 7.41183 14.6339C8.3285 14.4048 9.34338 14.2411 10.4565 14.1429V11.7857H7.11719ZM12.0279 14.1429C13.141 14.2411 14.1559 14.4048 15.0725 14.6339C15.2362 13.7827 15.3344 12.8333 15.3672 11.7857H12.0279V14.1429ZM16.5458 15.125C17.0368 15.3214 17.6097 15.6324 18.2645 16.058C19.1484 14.814 19.6722 13.3899 19.8359 11.7857H16.9386C16.9059 12.9315 16.7749 14.0446 16.5458 15.125ZM12.0279 19.4955C13.2392 19.1027 14.1231 17.9896 14.6797 16.1562C13.7958 15.9271 12.9118 15.7798 12.0279 15.7143V19.4955ZM10.4565 15.7143C9.57254 15.7798 8.68862 15.9271 7.80469 16.1562C8.36123 17.9896 9.24516 19.1027 10.4565 19.4955V15.7143ZM6.38058 16.6473C5.95498 16.811 5.5785 17.0074 5.25112 17.2366C5.87314 17.8259 6.56064 18.317 7.31362 18.7098C6.88802 17.9896 6.57701 17.3021 6.38058 16.6473ZM16.1038 16.6473C15.8746 17.4003 15.5472 18.0878 15.1217 18.7098C15.8746 18.3824 16.5785 17.8914 17.2333 17.2366L16.1038 16.6473Z" fill="#438DFF"/>
</svg>
